{"glyphs":{"0":{"ha":656,"x_min":-8,"x_max":663,"o":"m 424 907 l 424 907 q 575 855 522 907 q 645 720 628 803 q 651 542 663 638 q 608 356 640 447 q 531 190 578 271 q 416 54 485 108 q 251 0 347 0 q 126 31 188 0 q 28 134 64 63 q 3 325 -8 206 q 47 532 14 429 q 135 719 81 635 q 261 856 189 804 q 424 907 333 907 m 472 585 l 472 585 q 489 690 489 650 q 478 749 489 731 q 446 763 467 767 q 399 734 425 758 q 342 666 372 710 q 285 561 313 622 q 249 475 268 526 q 215 367 231 424 q 191 258 200 310 q 186 173 182 207 q 211 132 190 139 q 244 138 226 128 q 281 167 263 147 q 319 217 300 188 q 356 281 338 246 q 392 354 375 315 q 425 433 410 393 q 452 511 440 472 q 472 585 464 550 z "},"1":{"ha":463,"x_min":0,"x_max":463,"o":"m 463 863 l 463 863 q 438 824 463 863 q 365 664 414 785 q 247 308 317 543 q 207 133 211 188 q 207 63 203 78 q 219 38 211 46 q 228 31 228 31 q 126 0 178 -6 q 47 41 82 0 q 19 176 13 82 q 140 639 54 404 q 128 638 135 638 q 58 655 85 638 q 19 697 32 672 q 3 745 7 721 q 1 787 0 769 q 1 804 1 804 q 107 797 39 786 q 235 869 175 808 q 361 907 275 911 q 463 863 447 903 z "},"2":{"ha":708,"x_min":-7,"x_max":718,"o":"m 693 610 l 693 610 q 550 404 651 496 q 351 249 449 313 q 222 156 253 185 q 286 178 222 156 q 424 215 350 200 q 536 215 497 231 q 586 141 579 192 q 584 45 593 90 q 575 0 575 0 q 560 10 575 0 q 506 28 546 19 q 390 33 465 36 q 50 -1 185 22 q 33 13 50 -1 q 4 59 15 28 q 8 140 -7 90 q 87 242 25 183 q 231 368 149 301 q 389 502 313 435 q 512 628 465 569 q 550 732 558 688 q 503 746 542 756 q 418 701 464 736 q 342 615 372 667 q 319 506 313 564 q 269 508 319 506 q 175 542 219 510 q 136 660 131 574 q 245 829 150 751 q 450 907 340 907 q 624 864 563 907 q 702 753 686 821 q 693 610 718 686 z "},"3":{"ha":717,"x_min":-10,"x_max":728,"o":"m 453 908 l 453 908 q 630 864 565 908 q 711 752 694 819 q 696 610 728 685 q 587 487 656 525 q 461 453 518 449 q 472 451 461 453 q 499 444 482 450 q 533 424 515 438 q 563 390 550 411 q 581 336 576 368 q 576 260 585 304 q 472 84 558 164 q 218 -1 386 4 q 4 133 32 0 q 26 258 -10 217 q 37 246 26 258 q 78 222 47 233 q 171 210 110 210 q 410 336 358 218 q 408 385 422 371 q 365 399 393 399 q 310 394 338 400 q 271 383 283 388 q 267 406 271 383 q 273 454 263 428 q 325 497 283 481 q 463 568 411 529 q 537 644 514 607 q 560 709 560 681 q 546 750 561 738 q 461 741 515 771 q 361 653 407 711 q 310 528 315 594 q 282 528 310 528 q 222 538 254 528 q 169 581 189 549 q 161 675 149 613 q 214 785 172 732 q 317 873 256 838 q 453 908 379 908 z "},"4":{"ha":694,"x_min":-10,"x_max":694,"o":"m 585 574 l 585 574 q 635 498 628 549 q 633 402 642 447 q 624 357 624 357 q 614 365 624 357 q 578 380 604 372 q 503 390 551 388 q 478 308 490 351 q 438 133 443 188 q 438 63 433 79 q 451 38 442 46 q 460 31 460 31 q 357 0 408 -6 q 278 41 314 0 q 251 178 243 82 q 267 275 257 224 q 292 381 278 326 q 64 357 118 368 q 39 375 64 357 q 2 425 14 393 q 22 497 -10 457 q 123 701 96 586 q 115 899 150 817 q 156 905 115 899 q 244 903 196 911 q 319 856 292 894 q 333 738 347 804 q 285 613 318 672 q 224 524 251 554 q 342 554 224 524 q 467 869 428 810 q 592 907 506 911 q 694 864 678 903 q 680 842 694 864 q 636 758 665 821 q 565 579 607 696 q 585 574 576 576 z "},"5":{"ha":717,"x_min":-10,"x_max":724,"o":"m 714 807 l 714 807 q 702 711 724 757 q 590 660 681 665 q 428 691 504 663 q 351 719 351 719 q 335 631 347 685 q 296 522 322 576 q 301 525 296 522 q 315 531 306 528 q 340 535 325 533 q 374 538 354 538 q 419 533 394 538 q 552 455 503 521 q 579 274 601 389 q 463 75 551 149 q 246 0 374 1 q 85 34 150 1 q 4 133 21 67 q 26 260 -10 217 q 29 256 26 260 q 39 246 32 251 q 57 233 46 240 q 85 218 68 225 q 126 205 101 211 q 181 196 150 199 q 356 231 278 188 q 442 346 433 274 q 397 403 443 389 q 289 404 350 417 q 183 356 228 392 q 150 367 183 356 q 93 408 117 379 q 89 489 69 438 q 171 704 140 596 q 176 876 201 813 q 199 891 176 876 q 263 907 222 906 q 342 878 288 903 q 481 851 397 854 q 681 908 565 849 q 694 877 681 908 q 714 807 708 846 z "},"6":{"ha":572,"x_min":-15,"x_max":575,"o":"m 418 663 l 418 663 q 501 636 464 663 q 557 551 539 610 q 561 399 575 493 q 463 116 539 228 q 242 0 386 4 q 39 100 93 3 q 6 343 -15 197 q 102 649 35 524 q 254 841 169 775 q 415 907 339 907 q 519 874 475 907 q 571 783 564 842 q 569 729 574 746 q 564 713 564 713 q 463 731 549 747 q 306 624 376 714 q 418 663 358 663 m 207 128 l 207 128 q 301 226 263 132 q 347 415 339 319 q 322 521 356 511 q 256 460 293 519 q 193 321 219 401 q 207 128 151 139 z "},"7":{"ha":624,"x_min":-3,"x_max":624,"o":"m 211 135 l 211 135 q 198 82 200 103 q 199 49 196 61 q 207 33 203 38 q 211 29 211 29 q 193 15 211 29 q 122 0 175 0 q 42 23 69 0 q 6 81 15 46 q 1 150 -3 115 q 106 385 15 271 q 291 589 196 500 q 417 718 386 678 q 340 690 417 718 q 176 658 263 661 q 103 674 131 660 q 65 710 76 688 q 51 757 53 732 q 53 806 50 782 q 72 876 58 844 q 86 907 86 907 q 285 850 201 847 q 424 877 369 853 q 506 906 479 901 q 585 863 547 901 q 624 825 624 825 q 574 706 624 778 q 455 544 525 635 q 317 351 385 454 q 211 135 250 247 z "},"8":{"ha":613,"x_min":-4,"x_max":625,"o":"m 608 674 l 608 674 q 489 492 589 547 q 532 260 564 390 q 433 83 506 161 q 236 0 360 4 q 72 57 147 -1 q 1 254 -4 115 q 60 444 11 372 q 181 547 108 517 q 151 718 128 607 q 247 864 179 819 q 403 907 315 908 q 576 833 526 903 q 608 674 625 763 m 318 271 l 318 271 q 338 398 340 349 q 308 454 335 447 q 224 379 263 456 q 177 222 186 303 q 208 128 168 140 q 267 167 238 126 q 318 271 297 207 m 428 682 q 436 713 433 699 q 440 738 439 726 q 441 760 442 750 q 439 778 440 771 q 434 792 438 786 q 426 800 431 797 q 417 804 422 803 q 368 775 390 807 q 333 699 346 743 q 322 618 321 654 q 347 578 324 582 q 428 682 394 581 z "},"9":{"ha":572,"x_min":-3,"x_max":588,"o":"m 329 907 l 329 907 q 533 807 478 904 q 565 564 588 710 q 470 258 538 383 q 317 66 403 132 q 157 0 232 0 q 53 33 97 0 q 1 124 8 65 q 3 178 -1 161 q 8 194 8 194 q 109 176 24 160 q 265 283 194 193 q 154 244 214 244 q 71 270 108 243 q 15 356 33 297 q 11 508 -3 414 q 110 791 33 679 q 329 907 186 903 m 379 585 q 365 779 421 768 q 272 681 310 775 q 224 492 233 588 q 250 386 215 396 q 316 447 279 388 q 379 585 353 506 z "}," ":{"ha":385,"x_min":0,"x_max":0,"o":""},"!":{"ha":464,"x_min":0,"x_max":464,"o":"m 232 1039 l 232 1039 q 360 1077 272 1081 q 464 1033 447 1074 q 438 993 464 1033 q 364 832 413 953 q 244 479 315 711 q 193 276 203 336 q 183 217 183 217 q 82 238 138 204 q 40 293 54 256 q 33 401 26 331 q 131 782 60 575 q 232 1039 201 989 m 101 204 q 174 174 144 204 q 204 101 204 144 q 174 30 204 60 q 101 0 144 0 q 30 30 60 0 q 0 101 0 60 q 30 174 0 144 q 101 204 60 204 z "},"\"":{"ha":417,"x_min":0,"x_max":417,"o":"m 338 997 l 338 997 q 405 949 393 979 q 415 899 417 919 q 385 825 414 854 q 313 796 356 796 q 240 825 271 796 q 210 899 210 854 q 225 974 210 932 q 274 1047 240 1015 q 368 1078 308 1078 q 393 1076 383 1078 q 408 1071 403 1074 q 415 1066 414 1068 q 417 1064 417 1064 q 403 1062 417 1064 q 375 1050 390 1060 q 345 1015 353 1032 q 338 997 338 997 m 165 1050 l 165 1050 q 142 1026 150 1038 q 131 1006 133 1014 q 128 997 128 997 q 195 949 183 979 q 204 899 207 919 q 174 825 204 854 q 103 796 144 796 q 31 825 61 796 q 0 899 0 854 q 15 974 0 932 q 65 1047 31 1015 q 157 1078 99 1078 q 183 1076 174 1078 q 199 1071 193 1074 q 206 1066 204 1068 q 207 1064 207 1064 q 194 1062 207 1064 q 165 1050 181 1060 z "},"#":{"ha":792,"x_min":-7,"x_max":792,"o":"m 689 611 l 689 611 q 724 557 711 592 q 738 490 738 522 q 724 449 739 458 q 705 454 724 449 q 636 467 686 460 q 615 404 626 438 q 631 401 625 403 q 689 316 671 382 q 681 229 707 250 q 656 236 681 229 q 567 250 632 243 q 520 60 529 117 q 511 4 511 4 q 410 24 465 -8 q 368 81 382 43 q 361 188 354 118 q 374 260 365 222 q 275 260 329 261 q 226 62 235 121 q 217 3 217 3 q 114 24 171 -8 q 73 81 88 43 q 67 188 58 118 q 76 251 69 218 q 14 243 14 243 q 4 322 -7 274 q 22 352 10 338 q 55 378 33 367 q 111 396 76 389 q 133 474 121 435 q 56 463 56 463 q 47 542 36 493 q 78 586 54 567 q 157 617 103 606 q 181 621 168 618 q 265 826 240 786 q 393 864 306 868 q 496 819 481 860 q 473 783 496 819 q 404 635 450 746 q 481 635 443 635 q 560 826 536 789 q 688 864 600 868 q 792 819 775 860 q 765 778 792 819 q 689 611 739 736 m 411 415 q 429 479 419 447 q 346 481 392 481 q 324 415 336 450 q 411 415 368 415 z "},"$":{"ha":751,"x_min":-1,"x_max":763,"o":"m 624 961 l 624 961 q 750 751 763 899 q 644 533 732 618 q 463 447 556 447 q 421 451 439 447 q 411 421 415 436 q 502 441 468 439 q 556 431 536 443 q 610 340 604 397 q 589 233 615 282 q 456 85 535 138 q 297 15 378 33 q 283 -78 283 -78 q 228 -54 257 -85 q 210 1 214 -36 q 156 1 179 -1 q 42 49 81 8 q 0 144 4 89 q 2 182 -1 167 q 10 207 6 197 q 19 221 15 217 q 24 225 24 225 q 106 184 54 192 q 218 188 157 176 q 240 301 226 240 q 194 296 218 297 q 110 308 150 292 q 47 366 71 325 q 26 477 22 407 q 75 651 31 547 q 246 890 142 800 q 467 986 350 979 q 481 1011 475 1004 q 585 1067 525 1068 q 658 1013 644 1065 q 624 961 658 1013 m 314 574 l 314 574 q 314 575 314 575 q 314 575 314 575 q 371 746 342 664 q 238 526 286 639 q 214 463 222 490 q 206 416 206 435 q 219 388 207 397 q 258 381 232 379 q 314 574 283 476 m 508 346 l 508 346 q 519 364 515 356 q 524 377 524 372 q 519 385 524 382 q 506 387 515 388 q 483 383 497 386 q 447 372 468 379 q 399 353 426 364 q 389 350 393 351 q 365 272 376 313 q 353 231 358 250 q 508 346 463 281 m 504 660 l 504 660 q 608 812 588 742 q 601 901 629 882 q 594 904 599 903 q 488 647 554 824 q 504 660 496 653 z "},"%":{"ha":1115,"x_min":-8,"x_max":1125,"o":"m 1063 986 l 1063 986 q 1033 965 1063 986 q 938 876 1004 943 q 761 677 871 808 q 493 329 651 546 q 326 77 368 154 q 285 0 285 0 q 253 15 272 0 q 229 63 235 29 q 230 107 228 83 q 242 158 232 131 q 271 222 251 186 q 606 722 399 453 q 881 1049 813 992 q 1008 1069 947 1092 q 1063 986 1068 1046 m 890 575 l 890 575 q 1030 529 975 575 q 1105 412 1085 483 q 1108 260 1125 340 q 1019 82 1089 160 q 814 0 950 4 q 645 58 724 -1 q 578 254 567 117 q 686 485 597 394 q 890 575 775 575 m 894 271 l 894 271 q 915 397 918 347 q 886 454 911 447 q 801 379 839 456 q 753 222 763 303 q 785 128 744 140 q 844 167 814 126 q 894 271 875 207 m 533 761 l 533 761 q 444 585 514 663 q 238 501 375 507 q 69 559 147 500 q 3 757 -8 618 q 111 988 22 897 q 315 1078 200 1078 q 454 1032 400 1078 q 529 915 508 986 q 533 761 550 843 m 310 956 l 310 956 q 226 882 264 958 q 178 724 188 806 q 210 631 169 642 q 269 668 239 628 q 319 772 299 708 q 338 864 335 824 q 335 928 342 904 q 310 956 328 953 z "},"&":{"ha":767,"x_min":-28,"x_max":769,"o":"m 586 201 l 586 201 q 738 228 686 189 q 735 188 738 228 q 715 108 733 147 q 563 0 660 0 q 396 46 476 0 q 208 0 307 0 q 24 109 75 7 q 32 317 -28 211 q 69 367 47 340 q 119 421 92 393 q 176 476 146 449 q 201 685 175 572 q 356 994 258 907 q 553 1078 453 1082 q 716 1010 663 1075 q 766 855 769 946 q 701 683 763 764 q 390 414 589 544 q 442 288 404 335 q 485 360 468 324 q 507 426 501 396 q 507 475 513 456 q 541 467 507 475 q 608 431 575 458 q 644 349 642 404 q 586 201 644 281 m 628 951 l 628 951 q 513 903 579 975 q 406 660 446 831 q 442 683 425 674 q 633 861 600 789 q 628 951 665 933 m 193 115 l 193 115 q 283 144 240 122 q 210 279 238 201 q 137 190 158 231 q 128 129 115 150 q 193 115 140 108 z "},"'":{"ha":207,"x_min":0,"x_max":207,"o":"m 207 806 l 207 806 q 192 730 207 772 q 143 657 178 688 q 50 626 108 626 q 24 628 33 626 q 8 633 14 631 q 1 638 3 636 q 0 639 0 639 q 13 641 0 639 q 42 654 26 643 q 72 690 65 672 q 79 707 79 707 q 12 755 24 725 q 3 806 0 785 q 33 878 3 849 q 104 907 63 907 q 176 878 146 907 q 207 806 207 849 z "},"(":{"ha":589,"x_min":-25,"x_max":589,"o":"m 589 1189 l 589 1189 q 477 1067 535 1154 q 365 856 419 979 q 269 594 311 733 q 206 315 228 454 q 190 57 183 176 q 238 -144 196 -62 q 216 -148 238 -144 q 164 -144 194 -151 q 9 74 43 -114 q 61 592 -25 261 q 219 959 131 832 q 383 1135 307 1086 q 490 1189 458 1183 q 561 1194 533 1200 q 589 1189 589 1189 z "},")":{"ha":589,"x_min":0,"x_max":614,"o":"m 425 1172 l 425 1172 q 580 953 546 1142 q 528 435 614 765 q 370 69 458 196 q 206 -108 282 -58 q 99 -162 131 -157 q 28 -167 56 -172 q 0 -162 0 -162 q 112 -40 54 -128 q 224 171 169 49 q 319 433 278 293 q 383 711 361 572 q 399 969 406 850 q 351 1172 393 1089 q 373 1175 351 1172 q 425 1172 394 1178 z "},"*":{"ha":379,"x_min":0,"x_max":379,"o":"m 251 883 l 251 883 q 326 834 285 865 q 379 797 367 803 q 372 784 379 797 q 344 758 364 771 q 289 744 325 744 q 242 771 258 744 q 224 718 244 740 q 192 697 207 704 q 165 690 178 690 q 142 690 151 689 q 128 694 133 692 q 122 697 122 697 q 138 765 128 710 q 94 744 121 744 q 56 750 72 744 q 31 763 40 756 q 15 778 21 771 q 6 792 8 786 q 4 797 4 797 q 126 882 43 824 q 53 932 94 900 q 0 968 11 964 q 7 981 0 968 q 33 1008 14 994 q 90 1021 53 1021 q 138 996 119 1021 q 154 1047 135 1026 q 186 1069 171 1063 q 214 1076 201 1075 q 236 1076 226 1078 q 251 1072 246 1074 q 257 1069 257 1069 q 240 999 251 1056 q 285 1021 257 1021 q 322 1015 307 1021 q 348 1002 338 1010 q 364 987 358 994 q 372 974 369 979 q 375 968 375 968 q 251 883 336 942 z "},"+":{"ha":654,"x_min":-4,"x_max":660,"o":"m 614 447 l 614 447 q 653 345 660 419 q 608 247 647 271 q 558 256 608 247 q 399 268 508 264 q 366 115 372 168 q 363 43 360 61 q 365 25 365 25 q 289 0 342 0 q 238 17 264 0 q 194 74 211 35 q 183 178 178 114 q 197 264 188 214 q 74 251 103 258 q 44 244 44 244 q 3 313 14 263 q 7 367 -4 338 q 53 423 18 397 q 150 457 88 449 q 246 465 189 463 q 303 625 279 588 q 428 663 342 667 q 531 619 514 660 q 511 581 531 619 q 461 464 492 543 q 614 447 575 460 z "},",":{"ha":207,"x_min":0,"x_max":207,"o":"m 104 204 l 104 204 q 176 175 146 204 q 207 103 206 146 q 192 26 207 68 q 143 -46 178 -15 q 50 -76 108 -76 q 24 -74 33 -76 q 8 -70 14 -72 q 1 -66 3 -68 q 0 -64 0 -64 q 13 -62 0 -64 q 42 -49 26 -60 q 72 -15 65 -32 q 79 3 79 3 q 12 51 24 22 q 3 101 0 81 q 33 175 3 146 q 104 204 63 204 z "},"-":{"ha":556,"x_min":-4,"x_max":563,"o":"m 515 447 l 515 447 q 556 345 563 419 q 511 247 550 271 q 456 258 511 247 q 258 268 401 268 q 94 256 143 267 q 44 244 44 244 q 3 314 14 263 q 7 368 -4 338 q 53 424 18 399 q 150 458 88 449 q 356 466 243 469 q 515 447 468 463 z "},".":{"ha":204,"x_min":0,"x_max":204,"o":"m 101 204 q 174 174 144 204 q 204 101 204 144 q 174 30 204 60 q 101 0 144 0 q 30 30 60 0 q 0 101 0 60 q 30 174 0 144 q 101 204 60 204 z "},"/":{"ha":1111,"x_min":-1,"x_max":1117,"o":"m 867 1176 l 867 1176 q 1036 1201 956 1232 q 1110 1092 1117 1171 q 1070 1063 1110 1092 q 942 944 1031 1033 q 708 681 854 856 q 353 218 563 506 q 179 -35 240 63 q 97 -176 118 -132 q 75 -219 75 -219 q 33 -201 58 -221 q 1 -136 8 -182 q 2 -78 -1 -108 q 18 -10 6 -47 q 56 75 31 28 q 501 741 226 382 q 867 1176 776 1100 z "},":":{"ha":346,"x_min":0,"x_max":346,"o":"m 101 204 q 174 174 144 204 q 204 101 204 144 q 174 30 204 60 q 101 0 144 0 q 30 30 60 0 q 0 101 0 60 q 30 174 0 144 q 101 204 60 204 m 243 533 q 172 563 201 533 q 142 635 142 593 q 172 708 142 678 q 243 738 201 738 q 316 708 286 738 q 346 635 346 678 q 316 563 346 593 q 243 533 286 533 z "},";":{"ha":349,"x_min":0,"x_max":349,"o":"m 246 533 q 174 563 204 533 q 144 635 144 593 q 174 708 144 678 q 246 738 204 738 q 319 708 289 738 q 349 635 349 678 q 319 563 349 593 q 246 533 289 533 m 104 204 l 104 204 q 176 175 146 204 q 207 103 206 146 q 192 26 207 68 q 143 -46 178 -15 q 50 -76 108 -76 q 24 -74 33 -76 q 8 -70 14 -72 q 1 -66 3 -68 q 0 -64 0 -64 q 13 -62 0 -64 q 42 -49 26 -60 q 72 -15 65 -32 q 79 3 79 3 q 12 51 24 22 q 3 101 0 81 q 33 175 3 146 q 104 204 63 204 z "},"<":{"ha":681,"x_min":-3,"x_max":686,"o":"m 625 714 l 625 714 q 667 665 647 714 q 676 555 686 615 q 607 457 667 494 q 394 367 497 397 q 290 338 290 338 q 355 315 290 338 q 488 251 419 292 q 578 153 556 210 q 575 74 590 108 q 540 19 560 39 q 519 0 519 0 q 438 74 503 31 q 293 163 374 118 q 106 252 197 214 q 15 290 15 290 q 6 315 15 290 q 1 372 -3 340 q 42 424 6 403 q 199 491 90 447 q 488 625 308 535 q 595 690 565 665 q 625 714 625 714 z "},"=":{"ha":703,"x_min":-4,"x_max":710,"o":"m 663 624 l 663 624 q 703 522 710 596 q 658 424 696 447 q 592 434 658 424 q 381 444 526 444 q 195 438 257 443 q 113 426 133 432 q 93 421 93 421 q 51 489 63 439 q 56 544 44 514 q 101 599 67 574 q 200 633 136 625 q 454 642 299 646 q 663 624 610 639 m 614 306 l 614 306 q 653 204 660 279 q 608 107 647 129 q 542 117 608 107 q 332 128 476 128 q 147 121 208 126 q 65 110 85 115 q 44 104 44 104 q 3 172 14 121 q 7 227 -4 197 q 53 282 18 257 q 150 317 88 307 q 406 325 250 328 q 614 306 561 322 z "},">":{"ha":681,"x_min":-6,"x_max":683,"o":"m 665 425 l 665 425 q 674 399 665 425 q 678 343 683 374 q 639 290 674 313 q 480 224 589 267 q 192 90 371 181 q 85 24 115 49 q 54 0 54 0 q 13 49 32 0 q 4 159 -6 99 q 74 258 14 219 q 286 347 182 317 q 390 378 390 378 q 326 400 390 378 q 193 464 261 422 q 103 561 125 506 q 105 641 90 607 q 140 694 119 675 q 161 714 161 714 q 242 640 178 683 q 388 551 306 596 q 574 463 482 501 q 665 425 665 425 z "},"?":{"ha":578,"x_min":-4,"x_max":589,"o":"m 122 204 q 194 174 164 204 q 224 101 224 144 q 194 30 224 60 q 122 0 164 0 q 49 30 79 0 q 19 101 19 60 q 49 174 19 144 q 122 204 79 204 m 315 1078 l 315 1078 q 492 1034 428 1078 q 572 922 556 990 q 558 779 589 854 q 474 640 522 694 q 372 530 425 585 q 271 389 319 475 q 235 303 246 342 q 224 240 225 264 q 222 217 222 217 q 158 216 199 207 q 89 263 118 225 q 69 375 60 300 q 148 551 86 467 q 280 706 210 635 q 393 828 350 778 q 415 901 436 879 q 357 904 397 915 q 274 861 317 893 q 203 781 231 829 q 185 675 176 733 q 135 677 185 675 q 40 711 85 679 q 1 829 -4 743 q 110 999 15 921 q 315 1078 206 1078 z "},"@":{"ha":1050,"x_min":-26,"x_max":1064,"o":"m 207 750 l 207 750 q 473 892 324 860 q 760 883 622 924 q 981 730 899 842 q 1047 440 1064 618 q 944 140 1026 269 q 740 0 861 10 q 585 124 614 3 q 510 37 551 72 q 421 0 469 1 q 291 63 349 -1 q 240 264 233 126 q 336 550 254 436 q 543 664 418 664 q 618 644 578 664 q 682 576 658 625 q 690 606 686 592 q 722 642 700 633 q 765 651 743 651 q 861 642 815 656 q 915 601 907 629 q 901 576 915 601 q 861 478 888 550 q 799 272 835 407 q 807 140 765 131 q 906 279 849 150 q 951 523 961 408 q 826 711 942 638 q 630 749 757 754 q 384 651 503 744 q 219 332 265 557 q 234 101 196 185 q 339 -20 272 17 q 468 -61 406 -57 q 566 -60 524 -65 q 638 -47 608 -56 q 683 -31 668 -39 q 697 -24 697 -24 q 646 -90 693 -53 q 494 -137 599 -124 q 274 -119 390 -151 q 75 21 157 -86 q 9 376 -26 168 q 207 750 44 585 m 626 406 l 626 406 q 626 509 638 482 q 594 535 614 536 q 521 471 553 531 q 472 333 489 411 q 455 196 454 256 q 482 132 456 136 q 513 147 496 131 q 547 191 529 163 q 579 255 564 219 q 607 329 594 290 q 626 406 619 368 z "},"A":{"ha":1103,"x_min":0,"x_max":1269,"o":"m 1097 356 l 1097 356 q 1028 356 1097 356 q 1024 151 1008 232 q 1086 36 1039 69 q 1035 17 1086 36 q 919 1 985 -1 q 803 58 854 3 q 764 183 765 106 q 783 356 763 261 q 628 356 707 356 q 451 92 538 204 q 318 -37 383 3 q 151 -76 253 -76 q 78 -62 107 -76 q 34 -29 50 -49 q 10 10 18 -10 q 1 44 3 31 q 0 58 0 58 q 26 45 0 58 q 102 35 53 32 q 221 81 151 38 q 488 356 365 182 q 293 356 363 356 q 173 389 211 356 q 123 465 135 422 q 113 540 111 507 q 114 574 114 574 q 126 561 114 574 q 183 530 139 549 q 317 492 226 511 q 560 460 407 474 q 717 717 657 611 q 1039 1053 863 965 q 1137 1076 1086 1074 q 1225 1068 1188 1079 q 1269 1035 1263 1057 q 1247 999 1269 1035 q 1181 856 1225 964 q 1072 540 1138 749 q 1043 429 1054 482 q 1090 382 1083 408 q 1097 356 1097 356 m 838 540 l 838 540 q 939 807 896 708 q 983 907 982 906 q 907 822 953 889 q 804 657 861 754 q 683 450 747 560 q 807 446 742 447 q 838 540 821 493 z "},"B":{"ha":883,"x_min":-8,"x_max":1029,"o":"m 585 1078 l 585 1078 q 926 965 824 1072 q 974 711 1029 858 q 853 551 931 610 q 690 461 775 492 q 820 392 788 444 q 839 264 853 339 q 762 96 822 172 q 603 -28 701 19 q 382 -76 506 -76 q 226 -35 293 -76 q 165 101 158 6 q 272 524 196 306 q 381 793 349 743 q 507 831 421 835 q 608 788 593 828 q 584 748 608 788 q 511 588 560 708 q 392 233 463 468 q 371 145 378 183 q 363 80 364 107 q 369 35 363 53 q 385 8 375 17 q 411 0 396 0 q 544 65 479 3 q 644 208 610 126 q 658 350 679 289 q 532 413 636 411 q 519 413 525 411 q 518 413 518 413 q 504 417 504 411 q 488 453 485 429 q 503 483 490 478 q 733 595 649 524 q 832 738 818 667 q 779 847 846 808 q 508 867 679 896 q 214 735 336 839 q 173 692 190 713 q 144 655 156 672 q 127 623 133 638 q 118 596 121 608 q 115 573 115 583 q 117 555 115 563 q 120 542 118 547 q 124 535 122 538 q 126 532 126 532 q 69 550 103 514 q 13 647 35 586 q 6 765 -8 708 q 108 910 26 839 q 315 1029 190 981 q 585 1078 439 1078 z "},"C":{"ha":836,"x_min":-1,"x_max":940,"o":"m 442 568 l 442 568 q 550 590 489 561 q 665 668 611 618 q 756 783 718 718 q 796 903 793 849 q 747 976 799 958 q 612 952 693 992 q 445 828 531 913 q 295 624 360 743 q 210 358 231 504 q 280 98 190 165 q 497 57 369 31 q 718 171 625 83 q 800 268 768 222 q 842 338 832 314 q 873 354 854 361 q 885 322 892 347 q 693 42 821 156 q 397 -76 565 -72 q 97 34 196 -74 q 0 314 -1 142 q 100 683 1 486 q 330 970 193 863 q 604 1078 467 1078 q 798 1033 722 1078 q 907 919 874 988 q 931 776 940 851 q 817 520 907 622 q 617 418 726 418 q 540 433 571 418 q 490 471 510 449 q 460 515 471 493 q 446 553 450 538 q 442 568 442 568 z "},"D":{"ha":1015,"x_min":-8,"x_max":1046,"o":"m 556 1078 l 556 1078 q 826 1017 719 1078 q 987 856 933 956 q 1043 634 1040 756 q 1000 387 1046 513 q 864 150 954 261 q 382 -76 676 -68 q 224 -36 289 -78 q 165 101 158 6 q 272 524 196 306 q 381 793 349 743 q 507 831 421 835 q 608 788 593 828 q 584 748 608 788 q 511 588 560 708 q 393 233 463 468 q 371 145 378 183 q 363 80 364 107 q 369 35 363 53 q 385 8 375 17 q 411 0 396 0 q 622 105 515 4 q 799 349 728 206 q 869 626 869 492 q 758 832 868 760 q 484 867 643 894 q 214 735 325 839 q 174 691 190 711 q 146 653 157 671 q 128 620 135 635 q 119 593 122 606 q 117 571 117 581 q 118 554 117 561 q 121 542 119 547 q 124 535 122 538 q 126 532 126 532 q 69 550 103 514 q 13 647 35 586 q 6 765 -8 708 q 101 910 26 839 q 292 1029 175 981 q 556 1078 408 1078 z "},"E":{"ha":740,"x_min":-25,"x_max":844,"o":"m 368 640 l 368 640 q 590 739 475 629 q 677 884 660 817 q 663 972 694 951 q 549 956 614 997 q 425 840 483 914 q 342 697 367 767 q 336 572 314 613 q 400 526 358 531 q 403 526 401 526 q 493 468 469 508 q 517 392 517 428 q 517 356 517 356 q 382 376 454 390 q 258 308 310 361 q 206 172 207 254 q 283 72 211 97 q 449 71 354 46 q 624 171 544 96 q 747 338 725 282 q 778 354 760 361 q 790 322 797 347 q 615 42 729 156 q 335 -76 501 -72 q 58 36 142 -71 q 10 276 -25 143 q 87 417 36 363 q 199 499 138 471 q 110 586 143 529 q 92 735 78 643 q 250 981 124 888 q 519 1078 376 1075 q 763 1000 681 1076 q 838 801 844 924 q 744 585 825 667 q 550 506 664 504 q 434 543 474 511 q 381 608 394 575 q 368 640 368 640 z "},"F":{"ha":686,"x_min":-19,"x_max":1197,"o":"m 508 788 l 508 788 q 581 828 529 819 q 682 826 633 838 q 740 788 731 815 q 701 709 740 788 q 619 476 663 631 q 689 500 663 478 q 688 485 689 500 q 682 449 686 471 q 668 406 678 428 q 642 370 658 385 q 599 356 625 356 q 592 356 594 356 q 546 165 574 264 q 471 -4 518 65 q 346 -76 424 -74 q 231 -51 274 -75 q 172 -3 189 -28 q 156 22 156 22 q 300 64 251 -1 q 368 239 349 129 q 394 369 379 301 q 376 371 385 371 q 329 368 347 372 q 303 360 311 364 q 294 356 294 356 q 295 392 294 356 q 322 468 296 429 q 422 500 360 508 q 508 788 468 704 m 1144 1076 l 1144 1076 q 1160 1067 1144 1076 q 1187 1035 1176 1058 q 1188 971 1197 1011 q 1105 847 1168 890 q 896 814 1042 804 q 596 850 750 828 q 290 869 442 872 q 181 851 221 867 q 126 812 140 835 q 121 765 113 789 q 159 719 129 740 q 235 688 189 699 q 344 681 282 676 q 330 640 344 681 q 281 560 315 599 q 188 518 246 521 q 39 583 97 518 q 11 776 -19 649 q 160 992 54 911 q 390 1078 267 1074 q 662 1047 508 1075 q 993 1000 815 1018 q 1124 1021 1093 994 q 1144 1076 1154 1047 z "},"G":{"ha":939,"x_min":-7,"x_max":946,"o":"m 449 568 l 449 568 q 556 590 496 561 q 671 668 617 618 q 762 783 724 718 q 803 903 800 849 q 753 976 806 958 q 617 952 699 992 q 451 828 536 913 q 302 624 367 743 q 217 358 238 504 q 270 110 196 167 q 443 85 344 53 q 599 193 542 118 q 669 318 653 272 q 693 386 686 364 q 753 423 703 414 q 851 424 804 432 q 897 389 897 415 q 865 193 881 310 q 863 18 850 76 q 890 -24 874 -15 q 907 -32 907 -32 q 841 -74 890 -65 q 751 -67 792 -83 q 683 9 704 -43 q 663 129 663 61 q 519 -18 607 39 q 308 -76 432 -75 q 72 34 150 -74 q 1 314 -7 142 q 106 683 8 486 q 335 969 199 861 q 610 1078 472 1078 q 803 1033 728 1078 q 913 919 879 988 q 936 776 946 851 q 822 520 913 622 q 622 418 732 418 q 547 433 578 418 q 496 471 515 449 q 466 515 476 493 q 452 553 456 538 q 449 568 449 568 z "},"H":{"ha":1299,"x_min":-14,"x_max":1464,"o":"m 1464 1025 l 1464 1025 q 1429 977 1464 1025 q 1340 801 1394 929 q 1224 435 1285 672 q 1258 418 1244 428 q 1279 397 1272 408 q 1290 377 1286 386 q 1294 362 1293 368 q 1294 356 1294 356 q 1204 356 1294 356 q 1183 188 1183 253 q 1193 94 1183 122 q 1206 67 1199 78 q 1221 52 1214 57 q 1233 46 1228 47 q 1239 44 1239 44 q 1177 3 1221 11 q 1097 11 1133 -6 q 1025 99 1046 40 q 1003 232 1004 158 q 1008 356 1003 293 q 778 356 897 356 q 698 165 746 264 q 591 -5 650 67 q 468 -76 532 -76 q 383 -56 415 -76 q 332 -8 350 -35 q 308 39 314 18 q 301 60 301 60 q 306 59 301 60 q 318 59 310 58 q 338 64 326 60 q 363 77 349 68 q 393 101 376 86 q 446 167 419 128 q 497 253 472 206 q 546 356 522 301 q 489 356 513 356 q 369 389 408 356 q 319 465 331 422 q 309 540 307 507 q 311 574 311 574 q 328 558 311 574 q 406 520 344 542 q 594 478 467 499 q 694 899 689 757 q 642 1006 693 990 q 513 974 592 1022 q 324 782 403 904 q 213 540 246 660 q 210 354 181 419 q 168 367 210 354 q 79 415 126 381 q 9 509 32 449 q 18 663 -14 569 q 161 878 69 792 q 346 1014 253 964 q 524 1070 422 1056 q 714 1066 625 1085 q 843 990 803 1047 q 881 750 899 890 q 824 490 863 610 q 813 454 819 476 q 1018 444 904 447 q 1116 836 1054 668 q 1201 1039 1178 1004 q 1259 1069 1218 1060 q 1346 1077 1300 1079 q 1426 1062 1392 1075 q 1464 1025 1461 1049 z "},"I":{"ha":815,"x_min":-14,"x_max":900,"o":"m 843 989 l 843 989 q 881 750 900 890 q 824 490 863 610 q 760 313 807 432 q 646 83 714 193 q 760 115 719 81 q 758 96 760 115 q 751 48 757 76 q 733 -9 746 19 q 698 -57 721 -37 q 640 -76 675 -76 q 492 -68 575 -76 q 347 -56 410 -60 q 284 -60 308 -56 q 249 -71 260 -65 q 239 -76 239 -76 q 240 -28 239 -76 q 275 71 240 21 q 404 114 325 125 q 515 285 463 178 q 607 514 567 393 q 671 738 647 635 q 694 899 694 842 q 642 1006 693 990 q 513 974 592 1022 q 324 782 403 904 q 213 540 246 660 q 210 354 181 419 q 168 367 210 354 q 79 415 126 381 q 9 509 32 449 q 18 663 -14 569 q 161 878 69 792 q 346 1014 253 964 q 524 1070 422 1056 q 714 1066 625 1085 q 843 989 803 1047 z "},"J":{"ha":814,"x_min":-14,"x_max":900,"o":"m 843 989 l 843 989 q 878 734 900 882 q 817 469 857 586 q 751 286 790 381 q 667 109 713 192 q 570 -25 621 26 q 468 -76 519 -76 q 288 -28 367 -76 q 179 94 208 19 q 197 256 150 169 q 380 420 258 349 q 607 519 501 492 q 694 897 688 758 q 635 1008 694 1004 q 513 972 575 1011 q 324 781 403 903 q 213 538 244 658 q 210 353 181 418 q 168 366 210 353 q 79 413 126 379 q 9 508 32 447 q 18 661 -14 568 q 166 881 71 790 q 346 1013 261 971 q 651 1076 508 1090 q 843 989 793 1061 m 442 190 l 442 190 q 568 418 514 286 q 427 346 485 383 q 335 272 369 308 q 284 201 300 235 q 268 144 268 168 q 282 107 268 119 q 319 97 296 94 q 375 122 343 100 q 442 190 407 144 z "},"K":{"ha":1228,"x_min":-14,"x_max":1364,"o":"m 1286 675 l 1286 675 q 1117 490 1228 578 q 839 367 1006 401 q 869 310 851 342 q 1054 93 965 154 q 1206 44 1143 32 q 1180 16 1206 44 q 1125 -32 1154 -12 q 956 -73 1031 -94 q 813 79 881 -51 q 756 296 774 171 q 676 125 721 210 q 578 -18 631 40 q 468 -76 525 -76 q 383 -56 415 -76 q 332 -8 350 -35 q 308 39 314 18 q 301 60 301 60 q 306 59 301 60 q 318 59 310 58 q 338 64 326 60 q 363 77 349 68 q 393 101 376 86 q 484 228 440 149 q 566 405 528 308 q 633 597 604 501 q 678 773 663 693 q 694 899 694 853 q 642 1006 693 990 q 513 974 592 1022 q 324 782 403 904 q 213 540 246 660 q 210 354 181 419 q 168 367 210 354 q 79 415 126 381 q 9 509 32 449 q 18 663 -14 569 q 161 878 69 792 q 346 1014 253 964 q 524 1070 422 1056 q 714 1066 625 1085 q 843 989 803 1047 q 881 750 899 890 q 824 490 863 610 q 810 446 818 472 l 811 446 q 1033 664 933 504 q 1110 824 1081 743 q 1149 972 1140 904 q 1140 1078 1158 1039 q 1176 1067 1140 1078 q 1242 1038 1213 1056 q 1350 888 1336 975 q 1286 675 1364 801 z "},"L":{"ha":838,"x_min":-8,"x_max":936,"o":"m 529 1031 l 529 1031 q 680 1076 582 1082 q 857 1006 778 1071 q 933 814 936 940 q 883 613 929 718 q 741 434 838 508 q 485 356 644 360 q 443 201 460 272 q 436 150 436 172 q 550 168 494 161 q 649 172 608 175 q 715 157 689 168 q 754 129 740 146 q 775 92 768 113 q 785 51 782 72 q 784 -37 790 3 q 778 -78 778 -78 q 633 -20 731 -29 q 397 -24 535 -11 q 159 -58 254 -39 q 64 -76 64 -76 q 64 -17 54 -61 q 122 56 74 26 q 242 100 164 75 q 244 169 239 138 q 288 383 256 256 q 83 512 151 429 q 4 678 15 594 q 16 863 -8 771 q 101 1016 40 954 q 256 1078 161 1078 q 365 1062 310 1078 q 451 1007 421 1046 q 438 1006 451 1007 q 396 988 424 1004 q 326 929 368 972 q 240 701 244 835 q 314 486 235 567 q 419 816 361 661 q 529 1031 478 971 m 740 778 l 740 778 q 761 835 753 810 q 774 883 769 861 q 778 920 778 904 q 776 947 778 936 q 768 964 774 958 q 754 969 763 969 q 736 961 746 968 q 715 941 726 954 q 692 908 704 928 q 668 863 681 889 q 517 463 604 728 q 653 604 596 511 q 740 778 710 697 z "},"M":{"ha":1764,"x_min":-14,"x_max":1932,"o":"m 1735 539 l 1735 539 q 1749 36 1617 135 q 1698 17 1749 36 q 1582 1 1647 -1 q 1465 58 1517 3 q 1430 264 1411 132 q 1499 540 1449 396 q 1602 808 1558 708 q 1646 907 1646 907 q 1548 793 1601 869 q 1441 623 1494 717 q 1343 438 1388 529 q 1286 308 1313 374 q 1243 185 1260 243 q 1223 88 1226 128 q 1233 36 1219 49 q 1196 17 1233 36 q 1108 1 1158 -1 q 1015 58 1058 3 q 982 265 965 135 q 1050 539 999 396 q 1152 807 1108 707 q 1196 907 1196 907 q 1058 727 1146 874 q 867 399 969 581 q 667 82 764 218 q 535 -54 597 -15 q 468 -76 501 -76 q 467 -76 467 -76 q 465 -76 465 -76 q 458 -76 463 -76 q 359 -39 393 -71 q 313 26 325 -7 q 301 58 301 58 q 303 58 301 58 q 308 57 306 57 q 316 58 311 57 q 327 60 321 58 q 340 64 333 61 q 356 72 347 67 q 373 83 364 76 q 393 100 382 90 q 484 227 440 147 q 566 403 528 307 q 633 597 604 500 q 678 772 663 693 q 694 897 694 851 q 642 1005 693 989 q 513 972 592 1021 q 324 781 403 903 q 213 539 246 660 q 210 353 181 418 q 168 367 210 353 q 79 414 126 381 q 9 508 32 447 q 18 663 -14 568 q 161 876 69 790 q 346 1013 253 963 q 524 1069 422 1054 q 714 1065 625 1083 q 843 989 803 1046 q 884 792 892 907 q 846 568 876 678 q 929 715 893 654 q 1251 1053 1075 965 q 1349 1076 1299 1074 q 1438 1067 1400 1079 q 1482 1035 1475 1056 q 1460 1001 1482 1035 q 1397 863 1439 967 q 1290 560 1354 760 q 1365 692 1329 633 q 1478 858 1424 788 q 1588 977 1533 929 q 1701 1053 1643 1025 q 1799 1076 1749 1074 q 1888 1067 1850 1079 q 1932 1035 1925 1056 q 1910 999 1932 1035 q 1843 856 1888 964 q 1735 539 1799 749 z "},"N":{"ha":1314,"x_min":-14,"x_max":1482,"o":"m 1285 539 l 1285 539 q 1299 36 1167 135 q 1248 17 1299 36 q 1132 1 1197 -1 q 1015 58 1067 3 q 980 263 961 131 q 1050 540 999 396 q 1152 808 1108 708 q 1196 907 1196 907 q 1058 728 1146 875 q 867 399 969 581 q 667 82 764 218 q 535 -54 597 -15 q 468 -76 501 -76 q 467 -76 467 -76 q 465 -76 465 -76 q 458 -76 463 -76 q 359 -39 393 -71 q 313 26 325 -7 q 301 58 301 58 q 306 58 301 58 q 318 58 310 57 q 338 63 326 60 q 363 76 349 67 q 393 100 376 85 q 484 227 440 147 q 566 403 528 307 q 633 597 604 500 q 678 772 663 693 q 694 899 694 851 q 642 1006 693 990 q 513 974 592 1021 q 324 781 403 903 q 213 539 246 660 q 210 353 181 418 q 168 367 210 353 q 79 414 126 381 q 9 508 32 447 q 18 663 -14 569 q 161 876 69 790 q 346 1013 253 963 q 524 1069 422 1054 q 714 1065 625 1083 q 843 989 803 1046 q 884 793 892 907 q 846 568 876 679 q 929 715 893 654 q 1251 1053 1075 965 q 1349 1076 1299 1074 q 1438 1068 1400 1079 q 1482 1035 1475 1057 q 1460 999 1482 1035 q 1394 856 1438 964 q 1285 539 1350 749 z "},"O":{"ha":882,"x_min":-21,"x_max":924,"o":"m 843 988 l 843 988 q 922 750 919 894 q 876 443 924 606 q 793 240 849 342 q 658 69 738 139 q 482 0 579 0 q 285 51 381 0 q 138 178 189 101 q 110 333 86 254 q 131 381 119 360 q 24 475 68 408 q 18 660 -21 542 q 166 880 71 790 q 346 1011 261 969 q 642 1075 506 1089 q 843 988 778 1061 m 365 125 l 365 125 q 532 269 464 171 q 640 485 600 367 q 694 710 679 603 q 701 879 708 817 q 629 998 685 986 q 513 971 574 1010 q 297 737 382 888 q 199 457 213 586 q 272 491 233 482 q 349 500 311 500 q 426 478 397 500 q 469 428 454 456 q 489 378 485 400 q 493 356 493 356 q 335 280 390 349 q 284 153 279 211 q 365 125 289 96 z "},"P":{"ha":908,"x_min":-8,"x_max":1014,"o":"m 585 1078 l 585 1078 q 841 1026 743 1078 q 976 892 939 975 q 988 708 1014 808 q 833 470 956 576 q 471 356 711 364 q 456 294 463 326 q 433 115 433 185 q 442 18 432 46 q 454 -9 447 1 q 469 -24 461 -19 q 481 -31 476 -29 q 486 -32 486 -32 q 425 -74 469 -65 q 346 -65 381 -82 q 273 24 294 -36 q 251 156 251 83 q 277 419 251 281 q 333 660 303 557 q 382 793 364 763 q 467 830 406 822 q 583 824 528 838 q 644 781 639 811 q 621 746 644 781 q 562 633 597 711 q 489 426 526 556 q 707 526 622 446 q 813 700 792 607 q 779 847 833 793 q 520 885 692 917 q 214 735 349 853 q 127 622 144 667 q 118 554 110 576 q 126 532 126 532 q 69 550 103 514 q 13 647 35 586 q 6 765 -8 708 q 108 910 26 839 q 315 1029 190 981 q 585 1078 439 1078 z "},"Q":{"ha":896,"x_min":-21,"x_max":924,"o":"m 843 988 l 843 988 q 922 750 919 894 q 876 443 924 606 q 694 106 825 254 q 853 46 775 32 q 828 17 853 46 q 774 -31 803 -11 q 631 -76 696 -81 q 510 3 567 -72 q 482 0 496 0 q 285 51 381 0 q 138 178 189 101 q 110 333 86 254 q 131 381 119 360 q 24 475 68 408 q 18 660 -21 542 q 166 880 71 790 q 346 1011 261 969 q 642 1075 506 1089 q 843 988 778 1061 m 536 274 l 536 274 q 640 488 601 371 q 694 711 679 606 q 701 879 708 817 q 629 998 685 986 q 513 971 574 1010 q 297 737 382 888 q 199 457 213 586 q 272 491 233 482 q 349 500 311 500 q 426 478 397 500 q 469 428 454 456 q 489 378 485 400 q 493 356 493 356 q 335 280 390 349 q 284 153 279 211 q 365 125 289 96 q 419 154 394 138 q 347 211 379 215 q 360 240 347 211 q 401 285 374 268 q 466 300 433 300 q 536 274 499 300 z "},"R":{"ha":908,"x_min":-8,"x_max":1026,"o":"m 988 708 l 988 708 q 852 486 958 588 q 542 360 746 385 q 589 276 563 321 q 756 88 672 142 q 901 46 840 33 q 876 18 901 46 q 822 -31 851 -10 q 708 -76 765 -69 q 599 -47 650 -83 q 510 82 549 -10 q 457 296 468 197 q 456 294 457 294 q 433 115 433 185 q 442 18 432 46 q 455 -9 447 1 q 469 -25 463 -19 q 481 -32 476 -31 q 486 -33 486 -33 q 425 -74 469 -65 q 346 -65 381 -82 q 273 24 294 -36 q 251 156 251 83 q 277 419 251 281 q 333 660 303 557 q 382 793 364 763 q 467 830 406 822 q 583 824 528 838 q 644 779 639 811 q 621 745 644 779 q 562 633 597 711 q 489 426 526 556 q 707 526 622 446 q 813 700 792 607 q 779 847 833 793 q 520 885 692 917 q 214 735 349 853 q 127 622 144 667 q 118 554 110 576 q 126 532 126 532 q 69 550 103 514 q 13 647 35 586 q 6 765 -8 708 q 108 909 26 838 q 315 1029 190 981 q 585 1078 439 1078 q 924 967 822 1072 q 988 708 1026 861 z "},"S":{"ha":768,"x_min":0,"x_max":889,"o":"m 561 1076 l 561 1076 q 806 999 722 1075 q 878 800 889 924 q 753 545 857 646 q 540 444 650 444 q 465 460 496 444 q 414 497 433 475 q 384 542 394 519 q 370 579 374 564 q 367 594 367 594 q 474 616 414 588 q 589 694 535 644 q 712 872 688 789 q 704 976 736 954 q 610 961 668 996 q 489 858 553 926 q 369 705 425 789 q 278 538 313 621 q 241 416 244 460 q 283 367 238 372 q 440 400 328 361 q 575 436 526 431 q 650 425 624 442 q 713 320 707 388 q 689 196 719 253 q 533 21 626 82 q 346 -62 440 -40 q 182 -76 251 -83 q 49 -22 93 -68 q 0 90 4 25 q 0 113 0 103 q 1 131 0 122 q 5 147 3 140 q 10 158 7 153 q 15 168 13 164 q 20 176 18 172 q 24 181 22 179 q 27 183 26 182 q 28 185 28 185 q 205 134 88 122 q 435 201 322 146 q 596 326 547 257 q 608 347 603 338 q 613 363 613 357 q 608 372 613 369 q 592 374 603 375 q 565 369 582 374 q 524 357 549 365 q 465 335 499 349 q 226 267 326 274 q 129 283 176 264 q 53 349 82 301 q 30 479 25 397 q 88 683 35 561 q 294 969 168 863 q 561 1076 421 1075 z "},"T":{"ha":638,"x_min":-19,"x_max":1197,"o":"m 508 788 l 508 788 q 581 827 529 818 q 682 825 633 836 q 740 786 731 814 q 719 747 740 786 q 669 631 699 708 q 610 438 639 553 q 565 231 592 350 q 487 19 538 111 q 346 -78 436 -74 q 231 -53 274 -76 q 172 -4 189 -29 q 156 21 156 21 q 300 63 251 -3 q 368 239 349 128 q 436 556 397 392 q 508 788 475 719 m 1144 1075 l 1144 1075 q 1160 1066 1144 1075 q 1187 1033 1176 1057 q 1188 969 1197 1010 q 1105 846 1168 889 q 896 813 1042 803 q 596 849 750 826 q 290 868 442 871 q 181 850 221 865 q 126 812 140 835 q 121 764 113 789 q 159 718 129 739 q 235 686 189 697 q 344 679 282 675 q 330 639 344 679 q 281 559 315 599 q 188 517 246 519 q 39 582 97 517 q 11 775 -19 647 q 160 991 54 910 q 390 1076 267 1072 q 662 1045 508 1074 q 993 999 815 1017 q 1124 1019 1093 993 q 1144 1075 1154 1046 z "},"U":{"ha":1165,"x_min":-12,"x_max":1374,"o":"m 1374 1025 l 1374 1025 q 1351 997 1374 1025 q 1292 899 1329 969 q 1210 699 1256 828 q 1117 371 1165 571 q 1092 193 1092 263 q 1101 96 1092 124 q 1115 67 1107 78 q 1130 52 1122 57 q 1142 46 1138 47 q 1147 44 1147 44 q 1086 3 1131 11 q 1007 11 1042 -6 q 933 100 954 40 q 913 233 913 160 q 917 357 911 294 q 842 165 878 256 q 776 42 811 90 q 705 -33 742 -7 q 632 -69 668 -60 q 563 -77 596 -79 q 506 -66 531 -75 q 465 -47 481 -57 q 399 69 414 -19 q 449 329 385 158 q 556 640 513 494 q 604 899 599 786 q 551 1009 603 1004 q 454 972 500 1014 q 310 776 375 897 q 217 536 246 654 q 217 353 189 418 q 176 362 217 353 q 88 401 136 371 q 14 488 40 431 q 11 642 -12 546 q 288 1013 79 882 q 564 1076 426 1090 q 753 989 701 1061 q 788 739 810 883 q 726 469 767 594 q 672 299 700 381 q 625 154 644 218 q 603 52 606 90 q 626 13 601 14 q 710 94 664 14 q 806 297 756 175 q 904 543 856 419 q 1049 901 968 704 q 1085 988 1069 954 q 1092 1006 1089 999 q 1093 1006 1093 1006 q 1111 1039 1104 1029 q 1168 1069 1128 1060 q 1255 1077 1208 1079 q 1335 1062 1301 1075 q 1374 1025 1369 1049 z "},"V":{"ha":969,"x_min":-12,"x_max":1274,"o":"m 1146 1078 l 1146 1078 q 1204 1072 1181 1078 q 1242 1059 1228 1067 q 1263 1044 1256 1051 q 1272 1031 1269 1036 q 1274 1025 1274 1025 q 1194 949 1240 1004 q 1096 806 1147 893 q 997 602 1044 718 q 914 343 949 486 q 879 140 883 208 q 883 49 875 71 q 890 26 890 26 q 743 3 844 -7 q 554 83 642 13 q 464 307 467 154 q 501 540 468 435 q 566 735 533 646 q 604 897 599 824 q 552 1009 604 1004 q 454 972 500 1014 q 310 775 375 897 q 217 535 246 653 q 217 353 189 417 q 176 362 217 353 q 89 400 136 371 q 15 488 42 429 q 11 642 -12 546 q 288 1013 79 881 q 557 1074 426 1089 q 735 985 688 1058 q 749 774 776 899 q 686 468 722 649 q 669 292 669 360 q 678 189 668 225 q 703 139 689 153 q 728 124 717 125 q 739 122 739 122 q 787 563 742 360 q 906 918 832 767 q 1003 1042 947 1007 q 1146 1078 1058 1078 z "},"W":{"ha":1268,"x_min":-12,"x_max":1574,"o":"m 1446 1078 l 1446 1078 q 1515 1069 1489 1078 q 1553 1051 1540 1061 q 1569 1033 1565 1042 q 1574 1025 1574 1025 q 1494 949 1540 1004 q 1395 806 1447 893 q 1296 603 1343 719 q 1214 343 1249 486 q 1178 140 1182 208 q 1182 49 1175 71 q 1189 26 1189 26 q 1063 2 1146 -8 q 913 111 979 13 q 857 436 847 210 q 839 331 847 388 q 820 151 822 218 q 822 56 818 85 q 825 26 825 26 q 696 3 782 -7 q 538 83 610 13 q 464 307 465 154 q 501 540 468 435 q 566 735 533 646 q 604 897 599 824 q 551 1009 603 1004 q 454 972 500 1014 q 310 775 375 897 q 217 535 246 653 q 217 351 189 417 q 176 361 217 351 q 88 400 136 371 q 14 488 40 429 q 11 642 -12 546 q 288 1013 79 881 q 557 1074 426 1089 q 735 983 688 1058 q 749 774 776 899 q 686 468 722 649 q 673 360 676 407 q 671 276 669 313 q 678 215 672 240 q 691 172 683 189 q 708 144 699 154 q 725 128 717 133 q 741 120 733 122 q 753 118 749 118 q 757 118 757 118 q 760 413 733 258 q 826 682 786 568 q 979 896 890 865 q 1041 897 1017 907 q 1078 872 1065 886 q 1090 857 1090 857 q 1074 842 1090 857 q 1035 775 1058 826 q 985 621 1011 724 q 953 458 961 529 q 949 335 946 388 q 961 246 951 283 q 983 184 971 208 q 1008 147 996 160 q 1030 128 1021 133 q 1039 122 1039 122 q 1086 564 1040 361 q 1204 918 1132 767 q 1302 1042 1246 1007 q 1446 1078 1358 1078 z "},"X":{"ha":1025,"x_min":-12,"x_max":1182,"o":"m 1176 883 l 1176 883 q 1074 692 1171 842 q 739 313 978 542 q 833 100 760 153 q 968 54 907 47 q 961 46 968 54 q 940 27 954 38 q 902 8 925 17 q 847 0 879 0 q 707 38 786 -1 q 572 174 628 78 q 485 114 532 144 q 391 58 439 83 q 300 16 343 32 q 225 0 257 0 q 117 20 158 0 q 58 67 75 40 q 62 66 58 67 q 72 65 65 65 q 89 64 79 64 q 112 66 99 64 q 141 73 125 68 q 176 87 157 78 q 215 108 194 96 q 529 350 397 225 q 558 664 522 535 q 604 899 594 793 q 551 1009 603 1004 q 454 972 500 1014 q 310 776 375 897 q 217 535 246 654 q 217 353 189 417 q 176 362 217 353 q 88 400 136 371 q 14 488 40 429 q 11 642 -12 546 q 288 1013 79 882 q 558 1076 425 1090 q 753 989 692 1063 q 804 829 810 913 q 769 622 799 746 q 910 850 860 749 q 981 1013 961 951 q 1001 1074 1001 1074 q 1077 1047 1033 1081 q 1151 967 1121 1014 q 1176 883 1182 919 z "},"Y":{"ha":1151,"x_min":-12,"x_max":1374,"o":"m 1110 1036 l 1110 1036 q 1163 1069 1122 1060 q 1250 1077 1203 1079 q 1333 1062 1297 1075 q 1374 1025 1368 1049 q 1354 1009 1374 1025 q 1301 940 1335 993 q 1226 777 1268 886 q 1136 485 1183 668 q 1085 265 1115 396 q 1002 32 1056 135 q 858 -76 949 -71 q 743 -51 785 -75 q 684 -3 701 -28 q 667 22 667 22 q 811 64 763 -1 q 879 240 860 129 q 922 440 896 322 q 906 403 914 422 q 819 263 864 314 q 731 188 775 211 q 648 163 688 165 q 578 169 608 160 q 528 190 547 178 q 463 307 478 218 q 511 567 449 396 q 587 767 560 688 q 618 911 614 847 q 561 1013 617 1008 q 454 972 506 1017 q 342 834 394 918 q 254 656 290 750 q 206 481 218 563 q 217 353 194 400 q 176 362 217 353 q 88 400 136 371 q 14 488 40 429 q 11 642 -12 546 q 288 1013 79 882 q 553 1076 424 1090 q 753 989 683 1061 q 808 837 808 919 q 790 707 807 754 q 754 592 772 649 q 719 485 736 536 q 689 392 701 435 q 671 317 676 349 q 669 268 665 286 q 690 250 674 250 q 810 381 744 253 q 956 692 876 508 q 1083 981 1028 854 q 1106 1026 1094 1006 q 1108 1033 1107 1031 q 1108 1035 1108 1035 q 1110 1036 1108 1035 z "},"Z":{"ha":801,"x_min":-6,"x_max":983,"o":"m 924 1078 l 924 1078 q 932 1073 924 1078 q 951 1056 940 1068 q 972 1025 963 1044 q 982 976 981 1006 q 972 907 983 947 q 772 691 949 817 q 221 349 594 565 q 260 345 221 349 q 371 316 300 342 q 536 228 442 290 q 659 167 611 179 q 731 158 707 154 q 754 163 754 163 q 747 138 754 163 q 718 81 739 113 q 660 24 697 49 q 564 -1 622 -1 q 420 35 488 -1 q 288 115 353 71 q 161 192 224 160 q 35 224 99 225 q 22 235 35 224 q 1 270 8 246 q 11 332 -6 294 q 203 517 51 401 q 500 742 356 632 q 661 907 644 853 q 590 890 661 907 q 435 867 518 874 q 307 886 351 861 q 276 919 288 900 q 261 960 265 939 q 258 1001 257 981 q 262 1040 258 1022 q 270 1067 265 1057 q 281 1078 275 1076 q 332 1069 281 1078 q 472 1055 383 1061 q 677 1052 561 1049 q 924 1078 793 1056 z "},"a":{"ha":657,"x_min":-6,"x_max":715,"o":"m 664 332 q 697 354 679 363 q 710 321 715 346 q 672 223 703 300 q 597 85 640 146 q 521 14 556 31 q 450 0 486 -3 q 385 28 417 0 q 343 121 353 57 q 271 36 311 71 q 182 0 231 1 q 52 63 110 -1 q 1 265 -6 126 q 97 550 15 436 q 304 664 179 664 q 378 645 339 664 q 442 579 418 626 q 463 625 454 613 q 588 664 501 668 q 690 619 675 660 q 653 544 690 619 q 569 310 617 469 q 544 188 547 228 q 551 146 540 149 q 581 168 561 143 q 631 253 610 208 q 664 332 651 299 m 389 406 l 389 406 q 387 510 399 483 q 356 535 375 538 q 283 471 314 531 q 233 333 251 411 q 217 196 215 256 q 243 132 218 136 q 274 148 257 132 q 308 192 290 164 q 340 255 325 219 q 368 329 356 290 q 389 406 381 368 z "},"b":{"ha":592,"x_min":-32,"x_max":583,"o":"m 394 664 l 394 664 q 526 601 468 665 q 576 399 583 538 q 480 114 561 228 q 274 0 399 0 q 227 7 251 0 q 181 29 203 14 q 81 0 140 0 q 26 18 53 0 q -17 75 -1 36 q -25 178 -32 114 q 81 601 4 382 q 189 869 157 819 q 315 908 229 913 q 417 864 401 904 q 388 817 417 864 q 306 626 360 771 q 394 664 346 663 m 222 129 l 222 129 q 294 193 263 133 q 344 331 326 253 q 361 468 363 408 q 335 532 360 528 q 303 516 321 532 q 269 472 286 500 q 237 409 253 444 q 209 335 221 374 q 189 258 197 296 q 191 153 179 181 q 222 129 203 126 z "},"c":{"ha":461,"x_min":-6,"x_max":519,"o":"m 469 336 l 469 336 q 501 354 482 360 q 514 322 519 349 q 460 187 497 261 q 361 58 422 113 q 213 0 300 3 q 60 63 125 -1 q 1 265 -6 126 q 97 550 15 436 q 304 664 179 664 q 410 627 368 664 q 465 536 451 590 q 457 426 478 482 q 408 375 439 383 q 350 373 376 367 q 324 379 324 379 q 378 463 367 400 q 356 535 390 526 q 292 481 325 533 q 238 352 260 428 q 217 204 215 276 q 281 121 222 128 q 401 193 340 114 q 446 278 428 235 q 469 336 464 321 z "},"d":{"ha":649,"x_min":-6,"x_max":786,"o":"m 664 332 l 664 332 q 697 354 679 363 q 710 321 715 346 q 672 223 703 300 q 597 85 640 146 q 521 14 556 31 q 450 0 486 -3 q 384 28 417 0 q 343 119 351 57 q 271 35 311 69 q 182 0 231 1 q 52 63 110 -1 q 1 264 -6 126 q 97 550 15 436 q 304 664 179 664 q 378 645 339 664 q 442 578 418 626 q 558 869 524 815 q 685 908 599 913 q 786 864 771 904 q 762 824 786 864 q 689 665 738 785 q 569 310 640 544 q 542 158 535 188 q 581 168 550 129 q 664 332 639 257 m 389 406 l 389 406 q 387 509 399 482 q 356 535 375 536 q 283 471 314 531 q 233 333 251 411 q 217 196 215 256 q 243 132 218 136 q 274 147 257 131 q 308 191 290 163 q 340 255 325 219 q 368 329 356 290 q 389 406 381 368 z "},"e":{"ha":461,"x_min":-6,"x_max":519,"o":"m 469 336 l 469 336 q 501 354 482 360 q 514 321 519 349 q 460 186 497 260 q 361 58 422 113 q 213 -1 300 3 q 60 63 125 -1 q 1 265 -6 126 q 97 550 15 436 q 304 664 179 664 q 444 585 401 658 q 457 425 488 513 q 353 334 422 349 q 232 331 285 319 q 217 204 215 264 q 281 120 222 128 q 401 192 340 113 q 446 276 428 233 q 469 336 464 319 m 356 535 q 297 488 326 535 q 243 372 267 442 q 349 417 310 372 q 380 494 382 458 q 356 535 378 531 z "},"f":{"ha":306,"x_min":-35,"x_max":431,"o":"m 308 332 l 308 332 q 329 355 317 353 q 350 347 342 357 q 354 321 358 336 q 324 251 349 301 q 254 174 299 201 q 247 171 250 172 q 299 22 292 111 q 260 -160 307 -67 q 188 -232 226 -217 q 111 -244 149 -247 q 19 -199 69 -247 q -35 -8 -31 -150 q 18 387 -32 197 q 124 708 68 576 q 203 869 181 839 q 328 908 242 911 q 431 864 415 904 q 389 784 431 864 q 293 560 347 704 q 199 218 239 415 q 273 268 244 224 q 308 332 301 313 m 229 -74 l 229 -74 q 236 -28 236 -56 q 230 30 236 -1 q 213 90 224 61 q 185 140 201 119 q 176 86 181 114 q 174 -48 165 -6 q 201 -94 183 -90 q 229 -74 218 -99 z "},"g":{"ha":635,"x_min":-6,"x_max":690,"o":"m 460 621 l 460 621 q 532 660 479 651 q 633 658 585 669 q 690 619 682 647 q 669 581 690 619 q 619 464 649 542 q 560 271 589 386 q 515 64 542 183 q 437 -147 488 -56 q 297 -244 386 -239 q 181 -219 224 -243 q 122 -171 139 -196 q 106 -146 106 -146 q 250 -104 201 -169 q 318 72 299 -39 q 321 89 319 81 q 182 0 263 7 q 52 63 110 -1 q 1 265 -6 126 q 97 550 15 436 q 304 664 179 664 q 378 646 339 664 q 442 581 418 628 q 460 621 450 606 m 389 406 l 389 406 q 387 510 399 483 q 356 535 375 538 q 283 471 314 531 q 233 333 251 411 q 217 196 215 256 q 243 132 218 136 q 274 148 257 132 q 308 192 290 164 q 340 255 325 219 q 368 329 356 290 q 389 406 381 368 z "},"h":{"ha":644,"x_min":-33,"x_max":703,"o":"m 653 332 l 653 332 q 674 354 661 353 q 694 346 686 356 q 697 321 703 336 q 660 222 692 300 q 586 85 629 144 q 508 14 543 31 q 438 0 474 -3 q 361 40 397 -1 q 332 178 325 81 q 376 397 346 285 q 407 508 407 508 q 219 117 258 213 q 181 22 181 22 q 144 7 168 14 q 81 0 121 0 q 3 42 40 0 q -26 178 -33 83 q 81 601 4 382 q 189 869 157 819 q 315 908 229 913 q 417 864 401 904 q 390 825 417 864 q 316 666 364 786 q 200 310 268 546 q 173 187 172 207 q 186 194 174 167 q 401 611 328 532 q 503 659 439 650 q 620 656 567 668 q 679 619 674 644 q 642 544 679 619 q 558 310 604 469 q 533 188 536 226 q 539 146 529 149 q 568 168 549 143 q 653 332 628 257 z "},"i":{"ha":285,"x_min":-32,"x_max":353,"o":"m 294 332 l 294 332 q 327 353 308 361 q 340 321 346 344 q 302 222 333 300 q 228 85 271 144 q 151 14 186 31 q 79 0 115 -3 q 28 17 54 0 q -15 74 1 35 q -26 178 -32 114 q 26 427 -14 276 q 93 625 65 578 q 218 663 132 667 q 321 619 304 660 q 283 544 321 619 q 200 310 246 469 q 174 188 178 226 q 181 146 171 149 q 210 168 192 143 q 261 253 240 208 q 294 332 282 299 m 251 683 q 178 713 208 683 q 149 786 149 743 q 178 858 149 828 q 251 888 208 888 q 323 858 293 888 q 353 786 353 828 q 323 713 353 743 q 251 683 293 683 z "},"j":{"ha":271,"x_min":-264,"x_max":339,"o":"m 90 621 q 163 660 110 651 q 264 658 215 669 q 321 619 313 647 q 300 581 321 619 q 249 464 279 542 q 190 271 219 386 q 145 64 172 183 q 67 -147 118 -56 q -72 -244 17 -239 q -187 -219 -146 -243 q -247 -171 -229 -196 q -264 -146 -264 -146 q -119 -104 -168 -169 q -51 72 -71 -39 q 17 389 -22 225 q 90 621 56 553 m 236 683 q 165 713 194 683 q 135 786 135 743 q 165 858 135 828 q 236 888 194 888 q 309 858 279 888 q 339 786 339 828 q 309 713 339 743 q 236 683 279 683 z "},"k":{"ha":644,"x_min":-33,"x_max":704,"o":"m 475 454 l 475 454 q 417 378 429 397 q 404 358 404 358 q 474 180 414 229 q 568 168 533 131 q 651 332 626 257 q 685 353 667 361 q 697 321 704 344 q 660 222 692 300 q 586 85 629 144 q 508 14 543 31 q 438 0 474 -3 q 358 23 400 0 q 292 92 317 46 q 274 133 279 115 q 268 160 269 150 q 267 171 267 171 q 213 82 244 142 q 181 22 181 22 q 144 7 168 14 q 81 0 121 0 q 3 42 40 0 q -26 178 -33 83 q 81 601 4 382 q 189 869 157 819 q 315 908 229 913 q 417 864 401 904 q 390 825 417 864 q 316 666 364 786 q 200 310 268 546 q 173 187 172 207 q 186 194 174 167 q 297 458 253 361 q 400 626 342 554 q 500 663 431 660 q 626 638 569 667 q 672 547 682 610 q 658 552 672 547 q 619 553 644 557 q 556 528 593 550 q 475 454 519 506 z "},"l":{"ha":279,"x_min":-33,"x_max":417,"o":"m 294 332 l 294 332 q 328 354 310 363 q 340 321 346 346 q 302 223 333 300 q 228 85 271 146 q 151 14 186 31 q 81 0 117 -3 q 3 42 40 0 q -26 178 -33 83 q 81 601 4 382 q 189 869 157 819 q 315 908 229 911 q 417 864 401 904 q 392 824 417 864 q 319 665 368 785 q 200 310 271 544 q 173 158 165 188 q 211 168 181 129 q 261 253 240 208 q 294 332 282 299 z "},"m":{"ha":1001,"x_min":-33,"x_max":1061,"o":"m 1010 332 l 1010 332 q 1042 353 1024 361 q 1056 321 1061 344 q 1017 222 1049 300 q 943 85 986 144 q 866 14 901 31 q 794 0 831 -3 q 719 40 756 -1 q 689 178 682 81 q 733 397 703 285 q 764 508 764 508 q 576 117 615 213 q 538 22 538 22 q 501 7 525 14 q 438 0 478 0 q 384 18 411 0 q 341 75 357 36 q 332 178 325 114 q 378 406 349 303 q 407 508 407 508 q 219 117 258 213 q 181 22 181 22 q 144 7 168 14 q 81 0 121 0 q 3 42 40 0 q -26 178 -33 83 q 26 430 -12 282 q 92 625 65 578 q 218 663 132 667 q 319 619 304 660 q 280 537 319 619 q 200 310 240 454 q 177 210 182 240 q 176 178 172 179 q 186 194 179 178 q 401 611 328 532 q 501 658 438 649 q 618 657 564 668 q 678 619 672 646 q 640 544 678 619 q 558 310 603 469 q 542 250 549 275 q 534 210 536 225 q 531 187 532 194 q 532 178 531 179 q 536 182 533 178 q 543 194 539 186 q 760 611 685 532 q 860 659 796 650 q 977 656 924 668 q 1036 619 1031 644 q 999 544 1036 619 q 915 310 961 469 q 890 188 893 226 q 896 146 886 149 q 925 168 906 143 q 976 253 954 208 q 1010 332 997 299 z "},"n":{"ha":644,"x_min":-33,"x_max":704,"o":"m 653 332 l 653 332 q 685 353 667 361 q 699 321 704 344 q 660 222 692 300 q 586 85 629 144 q 509 14 544 31 q 438 0 474 -3 q 362 40 399 -1 q 332 178 325 81 q 376 397 346 285 q 407 508 407 508 q 219 118 258 214 q 181 22 181 22 q 144 7 168 14 q 81 0 121 0 q 3 42 40 0 q -25 178 -33 83 q 33 456 -6 317 q 89 622 72 594 q 219 663 132 668 q 321 619 307 658 q 283 544 321 619 q 201 310 246 469 q 185 250 192 275 q 177 210 179 225 q 174 187 175 194 q 175 178 174 179 q 179 182 176 178 q 186 194 182 186 q 403 611 328 532 q 503 659 439 650 q 620 656 567 668 q 679 619 674 644 q 642 544 679 619 q 558 310 604 469 q 533 188 536 226 q 539 146 529 149 q 568 168 549 143 q 653 332 628 257 z "},"o":{"ha":494,"x_min":-1,"x_max":499,"o":"m 308 664 l 308 664 q 467 551 435 660 q 458 292 499 443 q 367 99 435 192 q 178 1 300 7 q 58 56 118 0 q 0 251 -1 113 q 94 552 13 443 q 308 664 176 661 m 367 324 l 367 324 q 391 488 400 438 q 354 536 382 538 q 297 495 324 535 q 251 397 271 456 q 222 280 232 339 q 217 179 213 221 q 242 133 221 138 q 308 195 272 133 q 367 324 344 257 z "},"p":{"ha":615,"x_min":-36,"x_max":622,"o":"m 465 664 q 550 638 513 664 q 605 553 588 611 q 610 399 622 494 q 508 115 585 228 q 307 0 432 3 q 181 61 232 0 q 174 -77 172 -29 q 183 -150 175 -125 q 196 -177 189 -167 q 210 -192 203 -187 q 223 -199 218 -197 q 228 -200 228 -200 q 162 -242 211 -233 q 72 -235 113 -250 q -22 -67 -4 -204 q -13 191 -36 39 q 43 469 10 343 q 94 625 76 596 q 221 664 135 668 q 322 619 307 660 q 308 583 322 619 q 465 664 379 661 m 256 129 l 256 129 q 294 146 275 129 q 328 190 313 163 q 357 253 344 218 q 379 324 369 288 q 393 396 389 361 q 397 458 397 431 q 390 503 396 486 q 371 521 383 519 q 288 433 332 517 q 222 250 243 349 q 256 129 204 133 z "},"q":{"ha":643,"x_min":-6,"x_max":685,"o":"m 546 -150 l 546 -150 q 553 -169 549 -161 q 563 -183 558 -178 q 573 -192 568 -189 q 582 -198 578 -196 q 588 -200 586 -200 q 590 -200 590 -200 q 524 -242 574 -233 q 435 -235 475 -250 q 340 -67 358 -204 q 340 117 329 10 q 269 34 308 67 q 182 0 229 1 q 52 63 110 -1 q 1 264 -6 126 q 97 550 15 436 q 304 664 179 664 q 376 647 338 664 q 439 585 415 629 q 457 625 450 615 q 583 664 497 668 q 685 619 669 660 q 656 542 685 619 q 595 344 628 465 q 546 85 563 222 q 546 -150 526 -110 m 389 406 l 389 406 q 387 509 399 482 q 356 535 375 536 q 283 471 314 531 q 233 333 251 411 q 217 196 215 256 q 243 132 218 136 q 274 147 257 131 q 308 191 290 163 q 340 255 325 219 q 368 329 356 290 q 389 406 381 368 z "},"r":{"ha":572,"x_min":-33,"x_max":614,"o":"m 550 479 l 550 479 q 511 349 521 410 q 518 296 507 307 q 529 285 529 285 q 453 263 503 265 q 368 288 403 261 q 351 305 358 294 q 340 328 344 315 q 335 356 336 340 q 338 390 335 371 q 347 432 340 410 q 366 512 365 492 q 353 515 367 532 q 318 447 340 497 q 213 149 244 275 q 181 22 181 22 q 144 6 168 13 q 81 0 121 -1 q 3 40 40 -1 q -25 178 -33 82 q 33 454 -6 315 q 89 621 72 593 q 219 663 132 667 q 321 618 307 658 q 283 543 321 618 q 201 308 246 468 q 179 194 156 119 q 244 407 201 288 q 347 610 286 526 q 399 647 367 635 q 467 663 431 660 q 535 660 503 665 q 590 644 568 656 q 614 618 611 633 q 592 574 614 618 q 550 479 569 529 z "},"s":{"ha":426,"x_min":-21,"x_max":440,"o":"m -10 128 l -10 128 q 2 226 -21 190 q 65 258 25 263 q 63 242 65 258 q 69 201 60 225 q 163 161 101 157 q 233 210 225 165 q 216 236 235 226 q 158 254 197 246 q 54 290 106 263 q 6 400 3 317 q 48 524 10 457 q 154 631 86 590 q 355 641 269 689 q 440 500 440 593 q 410 397 440 440 q 331 354 379 354 q 281 371 293 354 q 267 404 268 388 q 267 421 267 421 q 280 419 267 421 q 314 438 293 417 q 333 472 326 451 q 338 511 340 493 q 325 533 336 529 q 233 431 275 533 q 224 363 221 396 q 272 307 228 329 q 338 122 381 254 q 288 44 328 86 q 172 0 247 3 q 37 47 78 4 q -10 128 -4 89 z "},"t":{"ha":279,"x_min":-33,"x_max":417,"o":"m 365 743 l 365 743 q 397 726 386 743 q 401 690 408 710 q 365 664 389 664 l 319 664 q 200 310 271 544 q 173 158 165 188 q 211 168 181 129 q 261 253 240 208 q 294 332 282 299 q 328 354 310 363 q 340 321 346 346 q 302 223 333 300 q 228 85 271 146 q 151 14 186 31 q 81 0 117 -3 q 3 42 40 0 q -26 178 -33 83 q 103 665 11 421 l 81 665 q 48 682 60 665 q 44 719 36 699 q 81 743 57 743 l 132 743 q 189 869 172 844 q 315 908 229 913 q 417 864 401 904 q 401 840 417 864 q 351 743 385 815 l 365 743 z "},"u":{"ha":592,"x_min":-32,"x_max":650,"o":"m 599 332 l 599 332 q 632 353 614 363 q 644 321 650 344 q 607 223 638 300 q 533 85 576 146 q 456 14 490 31 q 385 0 421 -3 q 333 18 360 0 q 290 75 306 36 q 279 178 274 114 q 279 179 279 178 q 228 85 253 119 q 176 28 201 46 q 128 4 151 10 q 79 0 104 -1 q 28 17 54 0 q -15 74 1 35 q -26 178 -32 114 q 26 427 -14 276 q 93 625 65 578 q 218 663 132 667 q 321 619 304 660 q 283 544 321 619 q 200 310 246 469 q 181 226 188 260 q 174 173 174 192 q 178 148 174 154 q 192 147 183 142 q 210 168 200 153 q 290 338 247 225 q 361 535 333 450 q 382 593 372 568 q 382 594 382 593 q 382 594 382 594 q 397 625 390 615 q 524 663 438 667 q 625 619 610 660 q 588 544 625 619 q 506 310 551 469 q 480 188 483 228 q 486 146 476 149 q 515 168 496 143 q 565 253 544 208 q 599 332 586 299 z "},"v":{"ha":561,"x_min":0,"x_max":575,"o":"m 453 703 l 453 703 q 538 672 501 703 q 575 574 575 642 q 534 353 575 474 q 407 125 493 233 q 309 37 365 74 q 183 0 253 0 q 67 42 125 -3 q 0 215 8 86 q 35 446 1 313 q 96 625 68 579 q 221 663 135 667 q 324 619 307 660 q 285 538 324 619 q 203 310 246 456 q 174 163 178 217 q 185 98 171 110 q 226 114 199 86 q 342 337 294 192 q 392 586 390 482 q 382 641 390 625 q 365 660 374 657 q 356 664 356 664 q 365 674 356 664 q 396 693 375 683 q 453 703 417 703 z "},"w":{"ha":864,"x_min":-32,"x_max":878,"o":"m 754 704 l 754 704 q 841 673 804 704 q 878 574 878 642 q 836 353 878 474 q 710 126 794 233 q 611 38 668 74 q 485 0 554 1 q 369 42 428 -3 q 303 215 310 86 q 303 232 303 224 q 228 85 264 136 q 176 28 201 46 q 128 4 151 10 q 79 0 104 -1 q 28 17 54 0 q -15 74 1 35 q -26 178 -32 114 q 26 427 -14 276 q 93 625 65 578 q 218 663 132 667 q 321 619 304 660 q 283 544 321 619 q 200 308 246 469 q 181 226 188 260 q 174 173 174 192 q 178 148 174 154 q 192 147 183 142 q 210 168 200 153 q 289 333 247 224 q 360 528 331 443 q 397 625 381 600 q 524 663 438 667 q 625 619 610 660 q 586 538 625 619 q 506 310 547 456 q 477 164 481 217 q 488 99 474 111 q 529 115 501 86 q 644 338 596 193 q 694 586 692 483 q 685 642 693 625 q 667 661 676 658 q 658 664 658 664 q 667 674 658 664 q 698 694 676 683 q 754 704 719 704 z "},"x":{"ha":525,"x_min":-56,"x_max":585,"o":"m 532 332 l 532 332 q 566 353 547 361 q 578 321 585 344 q 541 222 572 300 q 467 85 510 144 q 389 14 424 31 q 318 0 354 -3 q 244 12 293 -1 q 142 65 196 25 q 26 0 83 3 q -30 16 -12 1 q -51 45 -47 31 q -56 60 -56 60 q -53 58 -56 60 q -44 56 -50 57 q -29 55 -37 54 q -10 60 -21 56 q 15 73 1 64 q 43 98 28 82 q 75 139 58 114 q 75 139 75 139 q 38 213 54 171 q 17 460 -3 336 q 65 625 36 583 q 190 663 104 667 q 293 619 276 660 q 275 588 293 619 q 240 501 257 556 q 224 378 224 447 q 342 581 292 499 q 425 664 393 664 q 494 646 458 664 q 547 592 529 628 q 555 547 556 568 q 554 526 554 526 q 520 533 539 538 q 478 508 501 528 q 428 454 456 488 q 367 374 400 421 q 296 269 333 328 q 261 218 279 244 q 365 138 308 142 q 449 168 422 135 q 532 332 507 257 z "},"y":{"ha":569,"x_min":-32,"x_max":625,"o":"m 393 619 l 393 619 q 466 660 414 651 q 567 658 518 668 q 625 619 615 647 q 603 580 625 619 q 553 463 582 540 q 494 271 524 386 q 449 64 475 183 q 372 -148 422 -56 q 231 -246 321 -240 q 115 -219 157 -243 q 57 -172 74 -196 q 40 -147 40 -147 q 184 -105 136 -171 q 251 71 232 -39 q 269 160 260 113 q 228 85 247 113 q 176 28 201 47 q 128 4 151 10 q 79 0 104 -1 q 28 18 54 0 q -15 75 1 36 q -26 178 -32 114 q 26 428 -14 278 q 93 625 65 578 q 218 664 132 668 q 321 619 304 660 q 283 544 321 619 q 200 310 246 469 q 181 226 188 260 q 174 174 174 193 q 178 148 174 154 q 192 147 183 142 q 210 168 200 153 q 285 324 244 221 q 354 513 325 426 q 393 619 375 585 z "},"z":{"ha":511,"x_min":-64,"x_max":546,"o":"m 49 531 l 49 531 q 51 595 42 565 q 74 644 60 625 q 99 664 89 663 q 147 653 99 664 q 270 640 196 642 q 424 664 344 639 q 458 644 424 664 q 519 589 492 624 q 533 510 546 554 q 409 374 503 440 q 231 250 315 308 q 144 144 146 192 q 191 169 144 144 q 294 213 238 194 q 389 215 351 231 q 439 140 432 190 q 437 44 446 89 q 428 0 428 0 q 413 10 428 0 q 358 28 399 19 q 243 33 318 36 q 26 0 100 22 q 0 15 26 0 q -45 67 -26 31 q -49 164 -64 104 q 67 323 -21 236 q 240 476 156 410 q 325 542 325 542 q 259 526 325 542 q 127 507 193 511 q 49 531 61 503 z "}}}
